<svg width="16" height="12" viewBox="0 0 16 12" fill="none" xmlns="http://www.w3.org/2000/svg">
<path opacity="0.8" d="M13.625 0.59378C13.6875 0.53128 13.7708 0.500031 13.875 0.500031C13.9791 0.500031 14.0729 0.53128 14.1562 0.59378L15.0312 1.50003C15.1145 1.56253 15.1562 1.64586 15.1562 1.75003C15.1562 1.85419 15.1145 1.94794 15.0312 2.03128L5.65624 11.4063C5.59374 11.4688 5.51041 11.5 5.40624 11.5C5.30207 11.5 5.20832 11.4688 5.12499 11.4063L0.96875 7.21876C0.885416 7.15626 0.84375 7.07293 0.84375 6.96877C0.84375 6.8646 0.885416 6.77085 0.96875 6.68752L1.84375 5.81252C1.92708 5.72918 2.02083 5.68752 2.125 5.68752C2.22916 5.68752 2.3125 5.72918 2.375 5.81252L5.40624 8.84376L13.625 0.59378Z" fill="white"/>
</svg>
