<svg width="23" height="21" viewBox="0 0 23 21" fill="none" xmlns="http://www.w3.org/2000/svg">
<path d="M21.9175 3C22.2039 3 22.4383 3.11719 22.6206 3.35156C22.8289 3.58594 22.894 3.84635 22.8159 4.13281L21.1362 12.2578C21.1102 12.362 21.0711 12.4661 21.019 12.5703C20.967 12.6484 20.9018 12.7266 20.8237 12.8047C20.7456 12.8568 20.6545 12.9089 20.5503 12.9609C20.4461 12.987 20.342 13 20.2378 13H7.26904L7.73779 15.5H19.3003C19.7951 15.5 20.1076 15.7344 20.2378 16.2031C20.7326 16.6979 20.98 17.2969 20.98 18C20.98 18.7031 20.7326 19.2891 20.2378 19.7578C19.769 20.2526 19.1831 20.5 18.48 20.5C17.7768 20.5 17.1779 20.2526 16.6831 19.7578C16.2143 19.2891 15.98 18.7031 15.98 18C15.98 17.5573 16.0972 17.1406 16.3315 16.75H10.6284C10.8628 17.1406 10.98 17.5573 10.98 18C10.98 18.7031 10.7326 19.2891 10.2378 19.7578C9.76904 20.2526 9.1831 20.5 8.47997 20.5C7.77685 20.5 7.17789 20.2526 6.6831 19.7578C6.21435 19.2891 5.97997 18.7031 5.97997 18C5.97997 17.349 6.20133 16.7891 6.64404 16.3203L3.90966 1.75H0.823723C0.511223 1.75 0.354973 1.59375 0.354973 1.28125V0.96875C0.354973 0.65625 0.511223 0.5 0.823723 0.5H4.14404C4.37841 0.5 4.57372 0.578125 4.72997 0.734375C4.91226 0.864583 5.02945 1.04688 5.08154 1.28125L5.39404 3H21.9175ZM9.33935 18.8594C9.59976 18.625 9.72997 18.3385 9.72997 18C9.72997 17.6615 9.59976 17.375 9.33935 17.1406C9.10497 16.8802 8.81851 16.75 8.47997 16.75C8.14143 16.75 7.84195 16.8802 7.58154 17.1406C7.34716 17.375 7.22997 17.6615 7.22997 18C7.22997 18.3385 7.34716 18.625 7.58154 18.8594C7.84195 19.1198 8.14143 19.25 8.47997 19.25C8.81851 19.25 9.10497 19.1198 9.33935 18.8594ZM17.5815 18.8594C17.842 19.1198 18.1414 19.25 18.48 19.25C18.8185 19.25 19.105 19.1198 19.3393 18.8594C19.5998 18.625 19.73 18.3385 19.73 18C19.73 17.6615 19.5998 17.375 19.3393 17.1406C19.105 16.8802 18.8185 16.75 18.48 16.75C18.1414 16.75 17.842 16.8802 17.5815 17.1406C17.3472 17.375 17.23 17.6615 17.23 18C17.23 18.3385 17.3472 18.625 17.5815 18.8594ZM19.9643 11.75L21.5268 4.25H5.62841L7.03466 11.75H19.9643Z" fill="#F24956"/>
</svg>
