<svg width="26" height="26" viewBox="0 0 26 26" fill="none" xmlns="http://www.w3.org/2000/svg">
<path fill-rule="evenodd" clip-rule="evenodd" d="M13 23.92C19.0309 23.92 23.92 19.0309 23.92 13C23.92 6.96905 19.0309 2.08 13 2.08C6.96905 2.08 2.08 6.96905 2.08 13C2.08 19.0309 6.96905 23.92 13 23.92ZM13 26C20.1797 26 26 20.1797 26 13C26 5.8203 20.1797 0 13 0C5.8203 0 0 5.8203 0 13C0 20.1797 5.8203 26 13 26Z" fill="#8E8E91"/>
<path d="M12 5H14V12.5858L16.7104 15.2962L15.2963 16.7104L13.5858 15L12 13.4142V11.4142V5Z" fill="#8E8E91"/>
</svg>
