<svg width="18" height="18" viewBox="0 0 18 18" fill="none" xmlns="http://www.w3.org/2000/svg">
<path fill-rule="evenodd" clip-rule="evenodd" d="M17.5275 3.10474C17.7499 3.67712 17.9021 4.33136 17.9459 5.28937C17.9896 6.24916 18 6.55568 18 9C18 11.4442 17.9896 11.7507 17.9459 12.7106C17.9021 13.6685 17.7501 14.3227 17.5275 14.8953C17.06 16.1042 16.1043 17.0598 14.8954 17.5273C14.3229 17.7499 13.6688 17.9019 12.7108 17.9458C11.751 17.9896 11.4443 17.9999 9.00014 17.9999C6.55595 17.9999 6.24944 17.9896 5.28951 17.9458C4.3315 17.9019 3.67726 17.7499 3.10487 17.5273C2.50433 17.3014 1.96024 16.9471 1.51076 16.4892C1.0529 16.0398 0.698593 15.4957 0.472687 14.8953C0.250214 14.3227 0.098053 13.6685 0.0543823 12.7106C0.010437 11.7508 0 11.4442 0 8.99986C0 6.55568 0.010437 6.24916 0.0543823 5.28923C0.0979156 4.33136 0.249939 3.67712 0.472275 3.1046C0.698318 2.50406 1.05276 1.9601 1.51062 1.51062C1.96024 1.05276 2.5042 0.698456 3.10474 0.472549C3.67726 0.250076 4.33136 0.0979156 5.28937 0.0541076C6.24916 0.010437 6.55582 0 9 0C11.4442 0 11.7508 0.010437 12.7106 0.0543823C13.6686 0.0979156 14.3227 0.249939 14.8953 0.472275C15.4958 0.698318 16.0399 1.05276 16.4894 1.51062C16.9472 1.96024 17.3015 2.5042 17.5275 3.10474ZM16.016 14.308C16.1392 13.991 16.2859 13.5144 16.3258 12.6369C16.3692 11.6878 16.3783 11.4033 16.3783 9C16.3783 6.59688 16.3691 6.31219 16.3258 5.36325C16.2859 4.48572 16.1392 4.00919 16.0159 3.69209C15.8717 3.30112 15.6416 2.94749 15.3427 2.65718C15.0524 2.35835 14.6987 2.12833 14.3079 1.98399C13.9907 1.86081 13.5143 1.71414 12.6367 1.67418C11.6877 1.63078 11.403 1.62158 9 1.62158C6.59688 1.62158 6.31219 1.63078 5.36325 1.67404C4.48572 1.71414 4.00919 1.86067 3.69209 1.98399C3.30112 2.12819 2.94749 2.35822 2.65718 2.65718C2.35835 2.94749 2.12819 3.30112 1.98386 3.69209C1.86067 4.00919 1.71414 4.48572 1.67404 5.36325C1.63078 6.31233 1.62158 6.59688 1.62158 9.00014C1.62158 11.4033 1.63078 11.6879 1.67404 12.6369C1.714 13.5144 1.86067 13.991 1.98386 14.308C2.12819 14.699 2.35822 15.0525 2.65718 15.3428C2.94749 15.6418 3.30112 15.8718 3.69196 16.0161C4.00919 16.1393 4.48572 16.286 5.36311 16.326C6.31206 16.3694 6.5966 16.3784 9 16.3784C11.4033 16.3784 11.6879 16.3694 12.6367 16.326C13.5143 16.286 13.9908 16.1393 14.3079 16.0161C15.0929 15.7133 15.7132 15.093 16.016 14.308ZM4.37833 9C4.37833 6.4476 6.44746 4.37833 8.99986 4.37833C11.5524 4.37833 13.6215 6.4476 13.6215 9C13.6215 11.5524 11.5524 13.6215 8.99986 13.6215C6.44746 13.6215 4.37833 11.5524 4.37833 9ZM6.00005 8.99986C5.99991 10.6567 7.34312 11.9998 8.99986 12C10.6567 12 12 10.6567 12 8.99986C12 7.34312 10.6569 6.00005 9 5.99991C7.34312 5.99991 6.00005 7.34312 6.00005 8.99986ZM13.8042 5.27577C14.4006 5.27577 14.8841 4.79224 14.8841 4.19582C14.8841 3.59926 14.4006 3.11572 13.8042 3.11572C13.2076 3.11572 12.7241 3.59926 12.7241 4.19582C12.7241 4.79224 13.2076 5.27577 13.8042 5.27577Z" fill="#727279"/>
</svg>
