<svg width="30" height="30" viewBox="0 0 30 30" fill="none" xmlns="http://www.w3.org/2000/svg">
<path fill-rule="evenodd" clip-rule="evenodd" d="M15.0019 0C16.1058 0 16.9973 0.930564 16.9973 2.08269V9.74876C16.9973 10.9009 16.1058 11.8315 15.0019 11.8315C13.8981 11.8315 13.0065 10.9009 13.0065 9.74876V2.08269C13.0065 0.930564 13.8981 0 15.0019 0Z" fill="#00A1E4"/>
<path fill-rule="evenodd" clip-rule="evenodd" d="M0.0998595 11.2997C0.439509 10.2362 1.54337 9.61582 2.60477 9.97032L9.56758 12.3632C10.5865 12.7177 11.1809 13.8698 10.8413 14.9776C10.5016 16.0411 9.39775 16.6615 8.33635 16.307L1.37354 13.9585C0.31214 13.5596 -0.23979 12.4075 0.0998595 11.2997Z" fill="#00A1E4"/>
<path fill-rule="evenodd" clip-rule="evenodd" d="M5.78897 29.6008C4.89739 28.9361 4.72756 27.6511 5.3644 26.7205L9.69493 20.5168C10.3318 19.5862 11.563 19.4089 12.4546 20.0736C13.3462 20.7383 13.516 22.0234 12.8791 22.9539L8.54861 29.1577C7.91177 30.0883 6.63809 30.2655 5.78897 29.6008Z" fill="#00A1E4"/>
<path fill-rule="evenodd" clip-rule="evenodd" d="M24.215 29.6008C23.3234 30.2655 22.0922 30.0439 21.4553 29.1577L17.1248 22.9539C16.488 22.0234 16.7002 20.7383 17.5494 20.0736C18.4409 19.4089 19.6722 19.6305 20.309 20.5167L24.6395 26.7205C25.2764 27.6511 25.1066 28.9361 24.215 29.6008Z" fill="#00A1E4"/>
<path fill-rule="evenodd" clip-rule="evenodd" d="M29.904 11.2997C30.2436 12.3632 29.6493 13.5596 28.6303 13.9141L21.6675 16.2627C20.6486 16.6172 19.5022 15.9968 19.1626 14.9333C18.8229 13.8698 19.4173 12.6734 20.4363 12.3189L27.3991 9.9703C28.4605 9.66011 29.5644 10.2362 29.904 11.2997Z" fill="#00A1E4"/>
</svg>
