<svg width="30" height="30" viewBox="0 0 30 30" fill="none" xmlns="http://www.w3.org/2000/svg">
<path d="M0 15C0 6.7102 6.7102 0 15 0C23.2898 0 30 6.7102 30 15C30 23.2898 23.2898 30 15 30C13.3592 30 11.7918 29.7429 10.3224 29.2531C11.3878 23.0571 15.2939 18.0122 20.4612 15.8694C21.0735 16.5796 21.9796 17.0204 22.9837 17.0204C24.8204 17.0204 26.3143 15.5265 26.3143 13.6898C26.3143 11.8531 24.8204 10.3592 22.9837 10.3592C21.1469 10.3592 19.6531 11.8531 19.6531 13.6898C13.0531 15.6735 7.71429 20.2776 5.00816 26.1918C4.15102 25.4204 3.37959 24.551 2.71837 23.6082C2.87755 17.8531 5.71837 12.8204 9.99184 9.8449C10.6041 10.5306 11.498 10.9714 12.4898 10.9714C14.3265 10.9714 15.8204 9.47755 15.8204 7.62857C15.8204 5.77959 14.3265 4.29796 12.4898 4.29796C10.6408 4.29796 9.15918 5.79184 9.15918 7.62857C9.15918 7.72653 9.17143 7.82449 9.17143 7.9102C5.17959 9.30612 1.92245 12.0735 0.0122449 15.5755C0 15.3918 0 15.1959 0 15Z" fill="#FFC10E"/>
</svg>
