<svg width="45" height="45" viewBox="0 0 45 45" fill="none" xmlns="http://www.w3.org/2000/svg">
<rect width="45" height="45" fill="#F24956"/>
<path d="M24.25 25.2109H22.3438L21.9453 17.5781H24.6484L24.25 25.2109ZM21.9141 27.8828C21.9141 27.4453 22.0312 27.1146 22.2656 26.8906C22.5 26.6667 22.8411 26.5547 23.2891 26.5547C23.7214 26.5547 24.0547 26.6693 24.2891 26.8984C24.5286 27.1276 24.6484 27.4557 24.6484 27.8828C24.6484 28.2943 24.5286 28.6198 24.2891 28.8594C24.0495 29.0938 23.7161 29.2109 23.2891 29.2109C22.8516 29.2109 22.513 29.0964 22.2734 28.8672C22.0339 28.6328 21.9141 28.3047 21.9141 27.8828Z" fill="white"/>
</svg>
