<svg width="30" height="30" viewBox="0 0 30 30" fill="none" xmlns="http://www.w3.org/2000/svg">
<path fill-rule="evenodd" clip-rule="evenodd" d="M30 15.1645C30 23.3577 23.2843 29.9997 15 29.9997C6.71573 29.9997 0 23.3577 0 15.1645C0 6.97128 6.71573 0.329346 15 0.329346C23.2843 0.329346 30 6.97128 30 15.1645ZM15.0107 7.36638C10.6559 7.36638 7.12633 10.5993 7.12633 14.587C7.12633 16.8598 8.27304 18.8863 10.0648 20.2107V22.9633L12.7494 21.5059C13.4663 21.7025 14.2245 21.808 15.0111 21.808C19.3658 21.808 22.8966 18.5751 22.8966 14.5866C22.8962 10.5993 19.3654 7.36638 15.0107 7.36638ZM15.7949 17.0908L13.7871 14.9724L9.86827 17.0908L14.1783 12.5654L16.2354 14.6838L20.1045 12.5654L15.7949 17.0908Z" fill="#007EFF"/>
</svg>
