<svg width="512" height="512" viewBox="0 0 512 512" fill="none" xmlns="http://www.w3.org/2000/svg">
<path d="M490.699 36.3072L490.699 36.3074C496.142 37.563 500 42.4109 500 47.9995C500 297.834 297.466 499.999 47.9996 499.999C42.384 499.999 37.5559 496.108 36.3074 490.698C36.3074 490.698 36.3073 490.698 36.3073 490.698L12.3104 386.698L12.3102 386.698C11.0042 381.039 13.9378 375.258 19.2753 372.97L19.2757 372.97L131.273 324.97C133.665 323.945 136.325 323.725 138.853 324.344C141.381 324.963 143.639 326.387 145.287 328.401L145.287 328.401L194.883 389.017L200.803 396.253L209.267 392.282C290.143 354.339 355.133 288.451 392.283 209.267L396.254 200.803L389.018 194.883L328.401 145.287L320.803 154.574L328.401 145.287C326.387 143.639 324.963 141.381 324.344 138.853C323.726 136.325 323.945 133.665 324.97 131.273L372.97 19.2757C375.259 13.9363 381.041 11.0046 386.698 12.3101L386.699 12.3102L490.699 36.3072Z" stroke="#ffffff" stroke-width="24"/>
</svg>
