<svg width="12" height="16" viewBox="0 0 12 16" fill="#F24956" xmlns="http://www.w3.org/2000/svg">
<path fill-rule="evenodd" clip-rule="evenodd" d="M10.1734 8.50282C10.721 7.43892 11 6.57825 11 6C11 3.23858 8.76142 1 6 1C3.23858 1 1 3.23858 1 6C1 6.57825 1.27902 7.43892 1.82663 8.50282C2.3576 9.53439 3.07648 10.6362 3.81186 11.6588C4.54463 12.6777 5.27956 13.5984 5.8324 14.2653C5.89039 14.3353 5.94633 14.4024 6 14.4665C6.05367 14.4024 6.10961 14.3353 6.1676 14.2653C6.72044 13.5984 7.45537 12.6777 8.18814 11.6588C8.92352 10.6362 9.6424 9.53439 10.1734 8.50282ZM6.65934 15.2363C8.21802 13.3876 12 8.63086 12 6C12 2.68629 9.31371 0 6 0C2.68629 0 0 2.68629 0 6C0 8.63086 3.78198 13.3876 5.34066 15.2363C5.74522 15.7161 6 16 6 16C6 16 6.25478 15.7161 6.65934 15.2363Z" fill="#8E8E91"/>
<circle cx="6" cy="6" r="2" fill="#8E8E91"/>
</svg>
