<svg width="10" height="6" viewBox="0 0 10 6" fill="none" xmlns="http://www.w3.org/2000/svg">
<path opacity="0.7" d="M9.87107 0.962889C9.91404 1.02018 9.93552 1.08463 9.93552 1.15625C9.93552 1.22786 9.91404 1.28515 9.87107 1.32812L5.38085 5.83983C5.32356 5.8828 5.2591 5.90428 5.18749 5.90428C5.11587 5.90428 5.05858 5.8828 5.01561 5.83983L0.503906 1.32812C0.460937 1.28515 0.439453 1.22786 0.439453 1.15625C0.439453 1.08463 0.460937 1.02018 0.503906 0.962889L0.933593 0.533203C0.976561 0.490234 1.03385 0.46875 1.10547 0.46875C1.17708 0.46875 1.24153 0.490234 1.29883 0.533203L5.18749 4.42187L9.07615 0.533203C9.13344 0.490234 9.1979 0.46875 9.26951 0.46875C9.34112 0.46875 9.39842 0.490234 9.44138 0.533203L9.87107 0.962889Z" fill="#1D1D24"/>
</svg>
