<svg width="30" height="30" viewBox="0 0 30 30" fill="none" xmlns="http://www.w3.org/2000/svg">
<path fill-rule="evenodd" clip-rule="evenodd" d="M30 15C30 23.2843 23.2843 30 15 30C6.71573 30 0 23.2843 0 15C0 6.71573 6.71573 0 15 0C23.2843 0 30 6.71573 30 15ZM14.9385 19.1222C15.1223 18.9437 15.3065 18.7647 15.4913 18.5847C15.5133 18.6001 15.5345 18.6148 15.5551 18.629C15.5893 18.6527 15.6219 18.6753 15.6537 18.6983C15.9923 18.9485 16.331 19.1988 16.6696 19.4491C17.3999 19.9889 18.1302 20.5287 18.861 21.0673C19.4997 21.5383 20.0447 21.3357 20.21 20.5597C20.906 17.2913 21.599 14.022 22.2913 10.753C22.3118 10.6562 22.3335 10.5595 22.3551 10.4628C22.4261 10.1457 22.4971 9.82832 22.528 9.507C22.591 8.85133 22.125 8.52133 21.5187 8.75567C20.0334 9.32906 18.5482 9.90224 17.063 10.4754C15.3598 11.1327 13.6566 11.7901 11.9533 12.4477C11.6824 12.5521 11.4114 12.6564 11.1404 12.7606C10.1546 13.1398 9.16875 13.519 8.187 13.908C7.97167 13.9933 7.76433 14.1273 7.59067 14.281C7.40267 14.4477 7.43333 14.6793 7.643 14.8213C7.77867 14.9137 7.937 14.979 8.094 15.029C9.11433 15.3533 10.1363 15.6733 11.1603 15.986C11.293 16.027 11.355 16.0907 11.397 16.2217C11.6471 17.003 11.9002 17.7827 12.1532 18.5624C12.3375 19.1303 12.5218 19.6982 12.705 20.2667C12.7647 20.451 12.8733 20.5363 13.0677 20.5467C13.3523 20.5617 13.5753 20.4537 13.7737 20.2583C14.1595 19.8791 14.5478 19.5018 14.9385 19.1222ZM13.1074 19.5726C13.1017 19.5742 13.096 19.5758 13.0903 19.5773L12.4233 17.534C12.379 17.3982 12.3351 17.2623 12.2913 17.1264C12.1698 16.7501 12.0484 16.3741 11.9183 16.0007C11.8667 15.8517 11.892 15.7793 12.0277 15.694C13.6365 14.6834 15.2436 13.6703 16.8508 12.6571C17.6419 12.1584 18.433 11.6597 19.2243 11.1613C19.337 11.0903 19.4567 11.017 19.583 10.9843C19.6464 10.9679 19.7175 10.9819 19.7888 10.9959C19.8217 11.0024 19.8547 11.0089 19.887 11.0123C19.8725 11.0388 19.8598 11.0671 19.8472 11.0954C19.8195 11.1571 19.7919 11.2187 19.746 11.2603C18.801 12.1192 17.8528 12.9743 16.9043 13.8295C16.7658 13.9544 16.6272 14.0794 16.4887 14.2043C16.2377 14.4306 15.9868 14.657 15.736 14.8834C15.0053 15.5429 14.2747 16.2023 13.5407 16.8587C13.4163 16.97 13.3597 17.0873 13.3463 17.2527C13.3007 17.8209 13.2474 18.3881 13.1941 18.9552C13.1778 19.129 13.1614 19.3028 13.1453 19.4767C13.1435 19.4976 13.1383 19.5184 13.1331 19.5394C13.1307 19.5488 13.1284 19.5582 13.1263 19.5677C13.12 19.5692 13.1137 19.5709 13.1074 19.5726Z" fill="#139BD0"/>
</svg>
