<svg width="30" height="30" viewBox="0 0 30 30" fill="none" xmlns="http://www.w3.org/2000/svg">
<path fill-rule="evenodd" clip-rule="evenodd" d="M15 0C6.71567 0 0 6.71567 0 15C0 23.2843 6.71567 30 15 30C23.2843 30 30 23.2843 30 15C30 6.71567 23.2843 0 15 0ZM14.8213 6.43733C14.8695 6.23161 15.0562 6.13921 15.09 6.12248L15.0903 6.12233C15.1759 6.08003 15.2524 6.07344 15.4044 6.06034L15.4083 6.06C15.4083 6.06 15.5413 6.05133 15.658 6.05467C19.624 6.161 23.0493 8.97667 23.5427 13.242C23.5481 13.2886 23.5541 13.3365 23.5604 13.3872L23.5606 13.3888L23.5607 13.389C23.5932 13.6482 23.6347 13.9788 23.6483 14.558C23.6517 14.697 23.654 14.9493 23.4833 15.112C23.4063 15.1853 23.318 15.218 23.2563 15.234C23.1707 15.215 23.0357 15.1717 22.932 15.058C22.7946 14.9073 22.7844 14.7121 22.7806 14.6395L22.7803 14.635C22.7387 13.8607 22.629 13.087 22.451 12.332C21.7917 9.533 19.2507 7.324 16.3883 7.004C16.0557 6.96667 15.722 6.93 15.3877 6.91467C15.161 6.90433 14.9357 6.86233 14.847 6.71033C14.7836 6.60031 14.8134 6.47152 14.821 6.43874L14.8213 6.43733ZM16.3685 9.07238C16.3745 9.07266 16.378 9.07283 16.379 9.073C17.7277 9.301 18.9143 9.81067 19.7523 10.9607C20.4123 11.867 20.5803 12.915 20.7037 13.988C20.708 14.028 20.7473 14.1247 20.833 14.2133C20.8993 14.282 20.9747 14.3207 21.035 14.3433C21.0893 14.344 21.216 14.3377 21.333 14.253C21.4293 14.1833 21.4703 14.095 21.5067 14.015C21.5947 13.8203 21.598 13.631 21.586 13.5033C21.537 12.9433 21.385 12.029 20.858 11.047C20.421 10.2327 19.9187 9.73067 19.7987 9.61333C19.7987 9.61333 18.4143 8.25967 16.0767 8.143C15.9937 8.139 15.8173 8.13233 15.6777 8.24533C15.5787 8.32533 15.5357 8.435 15.5153 8.508C15.519 8.60267 15.5433 8.72933 15.6327 8.83267C15.727 8.94167 15.851 8.976 16.01 9.01767C16.1855 9.06373 16.3291 9.07051 16.3685 9.07238ZM19.436 13.1503C19.4133 13.4613 19.287 13.576 19.2553 13.603C19.161 13.6827 19.052 13.7047 18.986 13.712C18.9097 13.697 18.8013 13.663 18.7133 13.576C18.5867 13.4507 18.5674 13.2798 18.5603 13.2169L18.5597 13.2117C18.5287 12.9427 18.3357 12.082 17.8953 11.685C17.62 11.4367 17.2397 11.3057 16.6833 11.225C16.46 11.1927 16.2433 11.1473 16.165 10.9993C16.1063 10.8882 16.1447 10.7628 16.1577 10.7204L16.1583 10.7183C16.2497 10.4237 16.607 10.3387 16.6353 10.3327C16.8727 10.366 18.3897 10.5997 19.0833 11.7277C19.4587 12.338 19.4487 12.9767 19.436 13.1503ZM23.3305 21.8539C23.4248 21.7374 23.519 21.621 23.6137 21.5057C23.7099 21.3884 23.7486 21.2241 23.7942 21.0303C23.8173 20.932 23.8422 20.8261 23.8773 20.715C23.8374 20.6275 23.8043 20.5269 23.7705 20.4243C23.6951 20.1953 23.6164 19.9562 23.4513 19.8293C22.3363 18.973 21.1997 18.137 20.0133 17.3843C19.3497 16.9633 18.5457 17.2263 18.0487 17.848C17.9915 17.9195 17.9386 17.9985 17.8857 18.0775C17.7685 18.2525 17.6514 18.4273 17.4877 18.5203C17.1693 18.701 16.7147 18.9257 16.4237 18.8257C13.921 17.9647 12.1257 16.344 11.2653 13.7807C11.069 13.196 11.257 12.7553 11.702 12.3857C11.7899 12.3127 11.881 12.2434 11.972 12.1741C12.0652 12.1032 12.1585 12.0322 12.2483 11.9573C13.0173 11.317 13.2047 10.8357 12.6807 9.98533C11.9787 8.84633 11.1627 7.76767 10.3073 6.73667C9.79267 6.11667 9.044 6.11133 8.36333 6.55333C7.95833 6.81633 7.559 7.09333 7.186 7.39933C6.04467 8.335 5.90033 8.87533 6.37933 10.2663C6.3895 10.2959 6.39958 10.3256 6.40967 10.3552C6.45378 10.4849 6.49797 10.6149 6.55033 10.7413C9.10933 16.9387 13.5463 21.2327 19.7327 23.7583C20.4857 24.066 21.2423 24.006 21.821 23.5083C22.3828 23.0249 22.8583 22.4374 23.3305 21.8539Z" fill="#7D51A0"/>
</svg>
