<svg width="30" height="30" viewBox="0 0 30 30" fill="none" xmlns="http://www.w3.org/2000/svg">
<path d="M15.0004 0C6.71576 0 0 6.71554 0 14.9998C0 23.284 6.71599 30 15.0004 30C23.2842 30 29.9998 23.284 29.9998 14.9998C29.9998 6.71554 23.2845 0 15.0004 0Z" fill="#FE0000"/>
<path d="M9.20863 20.9783C10.2259 22.0133 11.4804 22.7603 12.8367 23.1523C13.2484 23.2721 13.6704 23.3587 14.0978 23.4109C14.3734 23.4446 14.6521 23.4634 14.932 23.4678C15.6827 23.4785 16.429 23.3805 17.1452 23.1836C18.1614 22.9033 19.1192 22.4237 19.9507 21.7692C20.1881 21.583 20.4141 21.3828 20.6285 21.1692C21.2127 20.5888 21.6923 19.9254 22.0577 19.2081C22.6184 18.1088 22.9147 16.8804 22.9147 15.6262C22.9147 15.5306 22.9129 15.4346 22.9089 15.3386C22.8827 14.5856 22.7688 13.8712 22.567 13.2036C22.3603 12.5223 22.0641 11.8897 21.6774 11.3152C21.6384 11.2569 21.5983 11.1997 21.5579 11.1429C21.03 10.4084 20.3482 9.77378 19.5139 9.2585C18.6423 8.71927 17.6119 8.29467 16.4075 8.03991C16.4044 7.98071 16.398 7.92084 16.398 7.85854C16.398 5.23423 18.0784 2.99948 20.4362 2.16292C20.6566 2.08443 20.7515 2.01991 20.7617 1.96936C20.7622 1.96625 20.7602 1.95095 20.7588 1.94696C20.7356 1.8749 20.5282 1.8361 20.2979 1.83078C19.9416 1.82258 19.5117 1.84209 19.0276 1.89552C18.4684 1.95761 17.8359 2.06559 17.1625 2.22966C16.9173 2.28997 16.6654 2.35737 16.4097 2.43276C16.0146 2.54961 15.6102 2.68597 15.2016 2.84272C13.8304 3.37087 12.4139 4.13603 11.1629 5.20895C9.28645 6.79649 7.68561 9.09598 7.01601 11.817C6.84817 12.4983 6.73908 13.2058 6.69784 13.9353C6.69518 13.9874 6.69274 14.038 6.69074 14.0896C6.6699 14.5985 6.68631 15.1075 6.74041 15.6104C6.79407 16.1035 6.88364 16.5913 7.01024 17.0669C7.02643 17.1317 7.04484 17.1955 7.06302 17.2596C7.30425 18.097 7.66034 18.8983 8.13261 19.6329C8.44191 20.1121 8.79999 20.5635 9.20863 20.9783Z" fill="white"/>
</svg>
