<svg viewBox="0 0 18 16" fill="none" xmlns="http://www.w3.org/2000/svg">
            <path fill-rule="evenodd" clip-rule="evenodd" d="M8.03191 15.5968L1.58266 9.17203C0.564133 8.1568 0 6.80552 0 5.37295C0 3.93729 0.560175 2.58592 1.57904 1.57035C2.59763 0.558773 3.94987 0 5.38682 0C6.73472 0 8.00922 0.491001 9.0036 1.3859C9.99467 0.494564 11.2656 0.00713867 12.6096 0.00713867C14.0501 0.00713867 15.4022 0.565614 16.421 1.58106C17.4398 2.59662 18 3.94799 18 5.38366C17.9963 6.81543 17.4362 8.16717 16.4174 9.18269L9.98242 15.5968C9.72661 15.8518 9.37006 16 9.00716 16C8.64084 16 8.2914 15.8555 8.03191 15.5968ZM9.47392 2.76856C9.34993 2.89215 9.1793 2.96114 9.00716 2.96114C8.83049 2.96114 8.66373 2.89149 8.5404 2.76856L8.27541 2.50442C7.50366 1.73517 6.47803 1.3121 5.3904 1.3121C4.30291 1.3121 3.28091 1.73507 2.51272 2.50069C1.74424 3.27017 1.31994 4.28907 1.31994 5.37295C1.31994 6.45687 1.74425 7.47566 2.51614 8.24505L8.9599 14.668C8.96762 14.6749 8.98435 14.6834 9.0085 14.6834C9.03356 14.6834 9.04793 14.6744 9.05248 14.6699L15.491 8.25219C16.2629 7.4828 16.6872 6.46401 16.6872 5.38009C16.6872 4.29571 16.2662 3.27705 15.4946 2.50799C14.7264 1.74227 13.7043 1.31923 12.6168 1.31923C11.5256 1.31923 10.5036 1.74224 9.73175 2.51156L9.47392 2.76856Z" fill="#ffffff"></path>
        </svg>