<svg width="26" height="18" viewBox="0 0 26 18" fill="none" xmlns="http://www.w3.org/2000/svg">
<path fill-rule="evenodd" clip-rule="evenodd" d="M22.9129 0.55056C24.014 0.847121 24.8823 1.71523 25.1787 2.81655C25.7294 4.82814 25.7082 9.02118 25.7082 9.02118C25.7082 9.02118 25.7082 13.1928 25.1789 15.2046C24.8823 16.3058 24.0142 17.1741 22.9129 17.4704C20.9011 18 12.8541 18 12.8541 18C12.8541 18 4.82814 18 2.79536 17.4494C1.69405 17.1529 0.825938 16.2846 0.529377 15.1835C0 13.1928 0 9 0 9C0 9 0 4.82814 0.529377 2.81655C0.825742 1.71543 1.71523 0.825938 2.79517 0.529573C4.80696 0 12.8539 0 12.8539 0C12.8539 0 20.9011 0 22.9129 0.55056ZM16.9834 9L10.2918 12.8541V5.14588L16.9834 9Z" fill="#727279"/>
</svg>
