<svg width="30" height="30" viewBox="0 0 30 30" fill="none" xmlns="http://www.w3.org/2000/svg">
<circle cx="15" cy="15" r="15" fill="#665CAC"/>
<path d="M16.2717 7.05803C17.1812 7.16909 17.9162 7.3834 18.7226 7.76814C19.5157 8.14774 20.0233 8.50666 20.6948 9.15999C21.3241 9.7771 21.6731 10.2445 22.0432 10.9701C22.5588 11.9824 22.8523 13.1856 22.9024 14.5104C22.921 14.9622 22.9078 15.0629 22.802 15.192C22.6011 15.4425 22.1595 15.4012 22.0088 15.1198C21.9613 15.0268 21.948 14.9468 21.9322 14.5852C21.9057 14.03 21.8661 13.6711 21.7868 13.2425C21.4748 11.5615 20.6499 10.2187 19.3333 9.25553C18.2361 8.44988 17.1019 8.05733 15.6161 7.97215C15.1137 7.94373 15.0265 7.92567 14.9128 7.84048C14.7013 7.67777 14.6907 7.29562 14.8943 7.11749C15.0185 7.00638 15.1058 6.9909 15.5368 7.00384C15.7615 7.01155 16.0919 7.03738 16.2717 7.05807V7.05803ZM10.2279 7.33692C10.3205 7.36792 10.4632 7.44022 10.5452 7.49187C11.0475 7.8172 12.4461 9.56538 12.9035 10.4382C13.1652 10.9365 13.2525 11.3058 13.1706 11.5795C13.0859 11.8739 12.9458 12.0288 12.3192 12.522C12.068 12.7209 11.8327 12.9248 11.7958 12.9791C11.7006 13.1134 11.6238 13.3768 11.6238 13.5627C11.6265 13.9939 11.912 14.7763 12.2875 15.378C12.5783 15.8453 13.0991 16.4444 13.6147 16.9041C14.2201 17.4463 14.7542 17.8156 15.357 18.1074C16.1316 18.4844 16.6049 18.5799 16.9512 18.4224C17.0384 18.3837 17.131 18.332 17.1601 18.3089C17.1865 18.2856 17.3901 18.0428 17.6122 17.7743C18.0404 17.2475 18.1383 17.1623 18.4318 17.0642C18.8046 16.9402 19.1853 16.9738 19.5686 17.1649C19.8594 17.3121 20.494 17.6968 20.9037 17.9757C21.443 18.3449 22.5957 19.2642 22.7518 19.4476C23.0267 19.7781 23.0743 20.2015 22.8892 20.669C22.6936 21.1621 21.9322 22.0866 21.4007 22.4817C20.9196 22.8381 20.5786 22.9749 20.1291 22.9956C19.759 23.0136 19.6057 22.9826 19.1324 22.7915C15.4204 21.2964 12.4567 19.0654 10.1037 16.0003C8.87433 14.3993 7.93835 12.7389 7.29852 11.0166C6.92579 10.0121 6.9073 9.57573 7.21395 9.06187C7.34615 8.84497 7.90931 8.30787 8.31907 8.00832C9.00118 7.51252 9.31583 7.32916 9.56699 7.27756C9.73883 7.24139 10.0375 7.2698 10.2279 7.33697V7.33692ZM16.4541 8.93015C18.059 9.15994 19.3016 9.88816 20.1159 11.0708C20.5733 11.7371 20.8588 12.5195 20.9566 13.3586C20.9909 13.666 20.9909 14.2263 20.954 14.3193C20.9196 14.4071 20.8085 14.5258 20.7133 14.5749C20.6103 14.6266 20.3908 14.6214 20.2692 14.5594C20.0657 14.4587 20.0048 14.2986 20.0048 13.8648C20.0048 13.196 19.8277 12.491 19.521 11.9436C19.172 11.3187 18.6644 10.8023 18.0458 10.4433C17.5144 10.1335 16.7291 9.90364 16.0126 9.84681C15.7535 9.82621 15.6108 9.77456 15.513 9.6635C15.3623 9.49566 15.3464 9.26842 15.4733 9.07993C15.6108 8.87074 15.8223 8.8372 16.4541 8.93015ZM17.0173 10.8797C17.5381 10.9882 17.9374 11.1818 18.2784 11.4943C18.7173 11.8997 18.9579 12.3903 19.0636 13.0953C19.135 13.5549 19.1059 13.7357 18.9393 13.8854C18.7833 14.0249 18.4952 14.03 18.3207 13.8984C18.1938 13.8054 18.1542 13.7073 18.1251 13.4413C18.0907 13.0875 18.0272 12.8397 17.9189 12.6098C17.6862 12.1218 17.2764 11.8687 16.5837 11.7861C16.2585 11.7474 16.1607 11.7112 16.0549 11.5899C15.8619 11.3652 15.936 11.0011 16.203 10.8668C16.3035 10.8178 16.3458 10.8126 16.5678 10.8255C16.7053 10.8332 16.9089 10.8565 17.0173 10.8797Z" fill="white"/>
</svg>
