<svg width="16" height="16" viewBox="0 0 16 16" fill="none" xmlns="http://www.w3.org/2000/svg">
<g opacity="0.5">
<g clip-path="url(#clip0)">
<path d="M11.049 5.51642L9.79655 5.47048L9.52502 12.8856L10.7775 12.9314L11.049 5.51642Z" fill="#424242"/>
<path d="M8.62666 5.49347H7.37341V12.9086H8.62666V5.49347Z" fill="#424242"/>
<path d="M6.47441 12.8854L6.20288 5.47027L4.95044 5.51624L5.222 12.9314L6.47441 12.8854Z" fill="#424242"/>
<path d="M0.543091 2.4021V3.65535H1.849L2.885 15.4283C2.9134 15.7519 3.18434 16 3.50912 16H12.4697C12.7946 16 13.0657 15.7517 13.0939 15.4281L14.1299 3.65535H15.4569V2.4021H0.543091ZM11.8958 14.7468H4.08293L3.10706 3.65535H12.8719L11.8958 14.7468Z" fill="#424242"/>
<path d="M10.0472 0H5.95319C5.37731 0 4.90881 0.4685 4.90881 1.04437V3.02872H6.16206V1.25325H9.83831V3.02872H11.0916V1.04437C11.0916 0.4685 10.6231 0 10.0472 0Z" fill="#424242"/>
</g>
</g>
<defs>
<clipPath id="clip0">
<rect width="16" height="16" fill="white"/>
</clipPath>
</defs>
</svg>
