<svg width="72" height="30" viewBox="0 0 72 30" fill="none" xmlns="http://www.w3.org/2000/svg">
<g clip-path="url(#clip0)">
<path d="M25.8565 14.5367C26.0386 14.0426 26.3371 13.672 26.7519 13.425C27.1768 13.1779 27.6472 13.0544 28.1632 13.0544V15.2778C27.5663 15.2058 27.0301 15.3293 26.5546 15.6484C26.0892 15.9675 25.8565 16.4976 25.8565 17.2388V20.9291H23.8989V13.2088H25.8565V14.5367Z" fill="#424242"/>
<path d="M30.6807 17.8874C30.9437 18.855 31.657 19.3388 32.8204 19.3388C33.569 19.3388 34.1356 19.0815 34.52 18.5668L36.0982 19.4932C35.3496 20.5946 34.2469 21.1453 32.79 21.1453C31.5356 21.1453 30.5289 20.7593 29.7702 19.9873C29.0114 19.2153 28.632 18.2425 28.632 17.069C28.632 15.9059 29.0064 14.9383 29.755 14.1662C30.5036 13.3839 31.4647 12.9927 32.6383 12.9927C33.7511 12.9927 34.6667 13.3839 35.385 14.1662C36.1134 14.9485 36.4776 15.9162 36.4776 17.069C36.4776 17.3264 36.4523 17.5992 36.4018 17.8874H30.6807ZM30.6503 16.3433H34.52C34.4087 15.8184 34.1761 15.4272 33.822 15.1699C33.478 14.9125 33.0834 14.7838 32.6383 14.7838C32.1122 14.7838 31.6772 14.9228 31.3332 15.2007C30.9893 15.4684 30.7616 15.8492 30.6503 16.3433Z" fill="#424242"/>
<path d="M43.5514 13.2089H45.509V20.9292H43.5514V20.0182C42.9647 20.7696 42.1401 21.1453 41.0779 21.1453C40.0662 21.1453 39.1961 20.7542 38.4677 19.9719C37.7494 19.1792 37.3903 18.2116 37.3903 17.069C37.3903 15.9264 37.7494 14.964 38.4677 14.1817C39.1961 13.3891 40.0662 12.9927 41.0779 12.9927C42.1401 12.9927 42.9647 13.3685 43.5514 14.1199V13.2089ZM39.9397 18.644C40.3343 19.0454 40.8351 19.2462 41.4421 19.2462C42.0491 19.2462 42.5499 19.0454 42.9444 18.644C43.3491 18.2322 43.5514 17.7073 43.5514 17.069C43.5514 16.4308 43.3491 15.911 42.9444 15.5096C42.5499 15.0978 42.0491 14.8919 41.4421 14.8919C40.8351 14.8919 40.3343 15.0978 39.9397 15.5096C39.5452 15.911 39.3479 16.4308 39.3479 17.069C39.3479 17.7073 39.5452 18.2322 39.9397 18.644Z" fill="#424242"/>
<path d="M51.6243 15.1237H49.9095V18.3354C49.9095 18.603 49.9753 18.7986 50.1068 18.9221C50.2383 19.0456 50.4305 19.1177 50.6834 19.1383C50.9364 19.1486 51.25 19.1434 51.6243 19.1228V20.9294C50.2788 21.0838 49.3278 20.9551 48.7714 20.5434C48.2251 20.1316 47.9519 19.3956 47.9519 18.3354V15.1237H46.6317V13.2091H47.9519V11.6496L49.9095 11.0474V13.2091H51.6243V15.1237Z" fill="#424242"/>
<path d="M53.0045 20.9293V13.209H54.9621V20.9293H53.0045Z" fill="#424242"/>
<path d="M61.7465 13.209H63.9014L61.0181 20.9293H58.7874L55.9041 13.209H58.059L59.8952 18.6132L61.7465 13.209Z" fill="#424242"/>
<path d="M66.2031 17.8874C66.4661 18.855 67.1794 19.3388 68.3428 19.3388C69.0914 19.3388 69.658 19.0815 70.0424 18.5668L71.6206 19.4932C70.872 20.5946 69.7693 21.1453 68.3124 21.1453C67.0579 21.1453 66.0513 20.7593 65.2926 19.9873C64.5338 19.2153 64.1544 18.2425 64.1544 17.069C64.1544 15.9059 64.5287 14.9383 65.2774 14.1662C66.026 13.3839 66.9871 12.9927 68.1607 12.9927C69.2735 12.9927 70.1891 13.3839 70.9074 14.1662C71.6358 14.9485 72 15.9162 72 17.069C72 17.3264 71.9747 17.5992 71.9241 17.8874H66.2031ZM66.1727 16.3433H70.0424C69.9311 15.8184 69.6984 15.4272 69.3443 15.1699C69.0004 14.9125 68.6058 14.7838 68.1607 14.7838C67.6346 14.7838 67.1996 14.9228 66.8556 15.2007C66.5116 15.4684 66.284 15.8492 66.1727 16.3433Z" fill="#424242"/>
<path d="M12.9064 29.238C9.17157 29.238 6.0868 28.0137 3.65208 25.5651C1.21736 23.1165 0 20.0966 0 16.5053C0 12.8908 1.21736 9.87084 3.65208 7.44557C6.0868 4.99699 9.17157 3.77271 12.9064 3.77271C15.152 3.77271 17.2203 4.29739 19.1114 5.34679C21.0261 6.37286 22.5153 7.77205 23.579 9.54436L19.3596 11.958C18.745 10.8619 17.8704 10.0108 16.7357 9.40445C15.6011 8.77481 14.3247 8.46 12.9064 8.46C10.4953 8.46 8.54516 9.20623 7.05596 10.6987C5.5904 12.1912 4.85762 14.1267 4.85762 16.5053C4.85762 18.8607 5.5904 20.7845 7.05596 22.277C8.54516 23.7695 10.4953 24.5157 12.9064 24.5157C14.3247 24.5157 15.6011 24.2126 16.7357 23.6062C17.894 22.9766 18.7686 22.1254 19.3596 21.0527L23.579 23.4663C22.5153 25.2386 21.0379 26.6495 19.1468 27.6989C17.2558 28.7249 15.1756 29.238 12.9064 29.238Z" fill="#424242"/>
<path d="M10.3746 0H15.0904V13.2042H10.3746V0Z" fill="#FDBB1C"/>
<path d="M55 11C55 11.5523 54.5523 12 54 12C53.4477 12 53 11.5523 53 11C53 10.4477 53.4477 10 54 10C54.5523 10 55 10.4477 55 11Z" fill="#FDBB1C"/>
</g>
<defs>
<clipPath id="clip0">
<rect width="72" height="30" fill="white"/>
</clipPath>
</defs>
</svg>
