<svg width="12" height="12" viewBox="0 0 12 12" fill="none" xmlns="http://www.w3.org/2000/svg">
<path opacity="0.54" d="M11.7396 5.21046C11.9758 4.98026 12.0592 4.64241 11.9573 4.32835C11.8552 4.01429 11.5892 3.7901 11.2624 3.74252L8.35677 3.32033C8.23302 3.30231 8.12609 3.2247 8.07082 3.11248L6.77181 0.479619C6.62596 0.183822 6.32992 0 6 0C5.67032 0 5.37428 0.183822 5.22843 0.479619L3.92918 3.11248C3.87391 3.2247 3.76674 3.30231 3.64299 3.32033L0.737401 3.74276C0.410847 3.7901 0.144845 4.01429 0.0427218 4.32835C-0.0591613 4.64241 0.0242194 4.98026 0.260425 5.21046L2.36272 7.25965C2.45235 7.34712 2.49344 7.47303 2.4723 7.59606L1.9761 10.4899C1.92035 10.815 2.05131 11.1372 2.31827 11.3314C2.58499 11.5258 2.93221 11.551 3.22465 11.397L5.82315 10.0307C5.93392 9.97253 6.06608 9.97253 6.17685 10.0307L8.77559 11.397C8.90247 11.4638 9.03991 11.4967 9.17664 11.4967C9.35421 11.4967 9.53107 11.4412 9.68197 11.3314C9.94893 11.1372 10.0799 10.815 10.0241 10.4899L9.5277 7.5963C9.50656 7.47303 9.54765 7.34736 9.63727 7.25989L11.7396 5.21046Z" fill="#BDBDBD"/>
</svg>
