<svg width="23" height="22" viewBox="0 0 23 22" fill="none" xmlns="http://www.w3.org/2000/svg">
<path opacity="0.65" d="M22.1675 9.82852L22.1675 9.82857L18.2639 13.634L18.2638 13.6341C17.9803 13.9107 17.8495 14.3092 17.9167 14.7012L18.8385 20.0739C18.8385 20.0739 18.8385 20.0739 18.8385 20.0739C18.9098 20.4901 18.7437 20.8989 18.4019 21.1475L18.4018 21.1476C18.2079 21.2887 17.9827 21.3589 17.7577 21.3589C17.5844 21.3589 17.4092 21.3172 17.2459 21.2313L17.2457 21.2311L12.4203 18.6942L12.4201 18.6941C12.0689 18.5097 11.6497 18.5097 11.2985 18.6941L11.2982 18.6942L6.47332 21.2311L6.47301 21.2313C6.09864 21.4285 5.65856 21.3964 5.31756 21.1478L5.31715 21.1475C4.97526 20.8989 4.80917 20.49 4.88052 20.0739L5.80183 14.7009C5.80184 14.7008 5.80186 14.7007 5.80187 14.7007C5.86909 14.3092 5.73822 13.9103 5.45481 13.6337L5.45461 13.6335L1.55106 9.82855L1.55103 9.82852C1.24892 9.53409 1.14291 9.10552 1.27338 8.70315C1.40423 8.30097 1.74167 8.01678 2.15944 7.95622L2.15965 7.95619L7.55474 7.17182L7.55485 7.1718C7.94674 7.11473 8.287 6.86882 8.46274 6.512L10.875 1.62366L10.8751 1.62352C11.0616 1.24526 11.4373 1.01184 11.8593 1.01184C12.2818 1.01184 12.6575 1.24534 12.8439 1.62352L12.844 1.62363L15.2558 6.512C15.4314 6.86843 15.7709 7.11467 16.1633 7.1718L16.1634 7.17183L21.5584 7.95573C21.9769 8.01666 22.3143 8.301 22.4451 8.70299C22.5757 9.10541 22.4697 9.53405 22.1675 9.82852Z" stroke="#FDBB1C"/>
</svg>
