<svg width="23" height="22" viewBox="0 0 23 22" fill="none" xmlns="http://www.w3.org/2000/svg">
<path opacity="0.65" d="M21.8368 10.1866C22.2754 9.75917 22.4302 9.13185 22.241 8.54871C22.0514 7.96556 21.5575 7.54928 20.9507 7.46094L15.5556 6.67702C15.3259 6.64356 15.1273 6.49945 15.0247 6.29108L12.6127 1.4024C12.3419 0.853161 11.7922 0.511841 11.1796 0.511841C10.5675 0.511841 10.0178 0.853161 9.74694 1.4024L7.3345 6.29108C7.23188 6.49945 7.03289 6.64356 6.80311 6.67702L1.40802 7.46139C0.801677 7.54928 0.307766 7.96556 0.118144 8.54871C-0.0710321 9.13185 0.0837889 9.75917 0.522374 10.1866L4.42592 13.9915C4.59234 14.1539 4.66863 14.3877 4.62937 14.6162L3.70803 19.9894C3.60452 20.5931 3.84768 21.1914 4.34338 21.5519C4.83862 21.9128 5.48334 21.9597 6.02633 21.6737L10.8512 19.1368C11.0569 19.0288 11.3023 19.0288 11.508 19.1368L16.3333 21.6737C16.5689 21.7977 16.8241 21.8589 17.078 21.8589C17.4077 21.8589 17.7361 21.7558 18.0163 21.5519C18.512 21.1914 18.7551 20.5931 18.6516 19.9894L17.7298 14.6166C17.6906 14.3877 17.7669 14.1544 17.9333 13.992L21.8368 10.1866Z" fill="#FDBB1C"/>
</svg>
