<svg width="20" height="20" viewBox="0 0 20 20" fill="none" xmlns="http://www.w3.org/2000/svg">
<g opacity="0.54">
<g clip-path="url(#clip0)">
<path d="M9.64452 9.91868C11.7555 9.91868 13.467 7.85534 13.467 5.31007C13.467 2.76475 12.9051 0.701416 9.64452 0.701416C6.38394 0.701416 5.82193 2.76475 5.82193 5.31007C5.82193 7.85534 7.5334 9.91868 9.64452 9.91868Z" fill="#424242"/>
<path d="M2.42464 16.9561C2.42399 16.7997 2.42334 16.9121 2.42464 16.9561V16.9561Z" fill="#424242"/>
<path d="M16.8641 17.0766C16.8662 17.0341 16.8648 16.7819 16.8641 17.0766V17.0766Z" fill="#424242"/>
<path d="M16.856 16.7694C16.7852 12.3355 16.2018 11.0721 11.7376 10.2723C11.7376 10.2723 11.1092 11.0672 9.64446 11.0672C8.17976 11.0672 7.55124 10.2723 7.55124 10.2723C3.13572 11.0634 2.51686 12.308 2.43549 16.6254C2.42882 16.9779 2.42572 16.9965 2.42453 16.9555C2.4248 17.0322 2.42513 17.1741 2.42513 17.4214C2.42513 17.4214 3.48795 19.5481 9.64446 19.5481C15.8009 19.5481 16.8638 17.4214 16.8638 17.4214C16.8638 17.2625 16.8639 17.152 16.8641 17.0768C16.8629 17.1021 16.8605 17.0531 16.856 16.7694Z" fill="#424242"/>
</g>
</g>
<defs>
<clipPath id="clip0">
<rect x="0.151245" y="0.701416" width="18.9868" height="18.8467" fill="white"/>
</clipPath>
</defs>
</svg>
