<svg width="12" height="12" viewBox="0 0 12 12" fill="none" xmlns="http://www.w3.org/2000/svg">
<path fill-rule="evenodd" clip-rule="evenodd" d="M6.8138 5.99983L11.8318 0.981799C12.0566 0.75702 12.0566 0.392616 11.8318 0.167837C11.6071 -0.0569425 11.2427 -0.0569425 11.0179 0.167837L5.99984 5.18587L0.981815 0.168604C0.757035 -0.0561754 0.392632 -0.0561754 0.167852 0.168604C-0.0569273 0.393384 -0.0569273 0.757787 0.167852 0.982567L5.18588 6.0006L0.168619 11.0179C-0.0561601 11.2426 -0.0561601 11.607 0.168619 11.8318C0.281393 11.9438 0.427921 12.0006 0.575217 12.0006C0.722513 12.0006 0.869808 11.9446 0.981815 11.8318L5.99984 6.81379L11.0179 11.8318C11.1306 11.9438 11.2772 12.0006 11.4245 12.0006C11.5718 12.0006 11.7191 11.9446 11.8311 11.8318C12.0558 11.607 12.0558 11.2426 11.8311 11.0179L6.8138 5.99983Z" fill="white"/>
</svg>
