<svg width="24" height="24" viewBox="0 0 24 24" fill="none" xmlns="http://www.w3.org/2000/svg">
<g clip-path="url(#clip0)">
<path fill-rule="evenodd" clip-rule="evenodd" d="M13.6283 12.0004L23.6644 1.96436C24.1139 1.5148 24.1139 0.785996 23.6644 0.336437C23.2148 -0.113122 22.486 -0.113122 22.0365 0.336437L12.0004 10.3725L1.96435 0.337971C1.51479 -0.111588 0.78598 -0.111588 0.336422 0.337971C-0.113137 0.78753 -0.113137 1.51634 0.336422 1.9659L10.3725 12.002L0.337956 22.0365C-0.111603 22.486 -0.111603 23.2148 0.337956 23.6644C0.563502 23.8884 0.85656 24.0019 1.15115 24.0019C1.44574 24.0019 1.74033 23.8899 1.96435 23.6644L12.0004 13.6283L22.0365 23.6644C22.262 23.8884 22.5551 24.0019 22.8497 24.0019C23.1442 24.0019 23.4388 23.8899 23.6629 23.6644C24.1124 23.2148 24.1124 22.486 23.6629 22.0365L13.6283 12.0004Z" fill="white"/>
</g>
<defs>
<clipPath id="clip0">
<rect width="24" height="24" fill="white"/>
</clipPath>
</defs>
</svg>
