<svg width="17" height="16" viewBox="0 0 17 16" fill="none" xmlns="http://www.w3.org/2000/svg">
<g opacity="0.5">
<g clip-path="url(#clip0)">
<path d="M11.1367 5.5164L9.88431 5.47046L9.61278 12.8856L10.8652 12.9313L11.1367 5.5164Z" fill="#424242"/>
<path d="M8.7144 5.49347H7.46115V12.9086H8.7144V5.49347Z" fill="#424242"/>
<path d="M6.56212 12.8854L6.29058 5.47028L5.03815 5.51624L5.30971 12.9314L6.56212 12.8854Z" fill="#424242"/>
<path d="M0.630829 2.4021V3.65535H1.93674L2.97274 15.4283C3.00114 15.7519 3.27208 16 3.59686 16H12.5575C12.8823 16 13.1534 15.7517 13.1816 15.4281L14.2176 3.65535H15.5446V2.4021H0.630829ZM11.9835 14.7468H4.17067L3.1948 3.65535H12.9596L11.9835 14.7468Z" fill="#424242"/>
<path d="M10.1349 0H6.04091C5.46504 0 4.99654 0.4685 4.99654 1.04437V3.02872H6.24979V1.25325H9.92603V3.02872H11.1793V1.04437C11.1793 0.4685 10.7108 0 10.1349 0Z" fill="#424242"/>
</g>
</g>
<defs>
<clipPath id="clip0">
<rect x="0.0877686" width="16" height="16" fill="white"/>
</clipPath>
</defs>
</svg>
