<svg width="19" height="20" viewBox="0 0 19 20" fill="none" xmlns="http://www.w3.org/2000/svg">
<g opacity="0.54">
<path d="M17.3301 2.6792H1.66992C0.750277 2.6792 0 3.42332 0 4.33723V15.3908C0 16.3016 0.746938 17.0488 1.66992 17.0488H17.3301C18.2474 17.0488 19 16.3072 19 15.3908V4.33723C19 3.42642 18.2531 2.6792 17.3301 2.6792ZM17.0995 3.78456L9.5354 11.2948L1.9059 3.78456H17.0995ZM1.11328 15.1619V4.56085L6.47481 9.83855L1.11328 15.1619ZM1.90048 15.9435L7.26539 10.6168L9.14523 12.4672C9.36284 12.6814 9.71401 12.6807 9.93073 12.4655L11.7637 10.6456L17.0995 15.9435H1.90048ZM17.8867 15.1619L12.5509 9.86401L17.8867 4.56612V15.1619Z" fill="#424242"/>
</g>
</svg>
