<svg width="16" height="16" viewBox="0 0 16 16" fill="none" xmlns="http://www.w3.org/2000/svg">
<path d="M8 0C7.58578 0 7.25 0.335781 7.25 0.75V5.5H6.875C6.11681 5.5 5.5 6.11681 5.5 6.875V9.125C5.5 9.88319 6.11681 10.5 6.875 10.5H7.25V15.25C7.25 15.6642 7.58578 16 8 16C8.41422 16 8.75 15.6642 8.75 15.25V10.5H9.125C9.88319 10.5 10.5 9.88319 10.5 9.125V6.875C10.5 6.11681 9.88319 5.5 9.125 5.5H8.75V0.75C8.75 0.335781 8.41422 0 8 0ZM9 9H7V7H9V9Z" fill="#424242"/>
<path d="M14.625 11H14.25V0.75C14.25 0.335781 13.9142 0 13.5 0C13.0858 0 12.75 0.335781 12.75 0.75V11H12.375C11.6168 11 11 11.6168 11 12.375V14.625C11 15.3832 11.6168 16 12.375 16H14.625C15.3832 16 16 15.3832 16 14.625V12.375C16 11.6168 15.3832 11 14.625 11ZM14.5 14.5H12.5V12.5H14.5V14.5Z" fill="#424242"/>
<path d="M1.375 5H1.75V15.25C1.75 15.6642 2.08578 16 2.5 16C2.91422 16 3.25 15.6642 3.25 15.25V5H3.625C4.38319 5 5 4.38319 5 3.625V1.375C5 0.616813 4.38319 0 3.625 0H1.375C0.616813 0 0 0.616813 0 1.375V3.625C0 4.38319 0.616813 5 1.375 5ZM1.5 1.5H3.5V3.5H1.5V1.5Z" fill="#424242"/>
</svg>
