<svg width="45" height="45" viewBox="0 0 45 45" fill="none" xmlns="http://www.w3.org/2000/svg">
<path d="M22.5 0C10.5007 0 0 10.4612 0 22.5C0 34.4993 10.4612 45 22.5 45C34.4993 45 45 34.5388 45 22.5C45 10.5007 34.5388 0 22.5 0ZM22.5 42.7041C11.737 42.7041 2.29592 33.263 2.29592 22.5C2.29592 11.737 11.737 2.29592 22.5 2.29592C33.263 2.29592 42.7041 11.737 42.7041 22.5C42.7041 33.263 33.263 42.7041 22.5 42.7041Z" fill="#009E1E"/>
<path d="M32.1018 19.1944L26.1163 18.2849L23.4405 12.6113C23.264 12.2369 22.8995 12 22.5002 12C22.1013 12 21.7369 12.2369 21.5604 12.6113L18.8833 18.2849L12.8974 19.1944C12.5026 19.2543 12.1746 19.5439 12.0513 19.941C11.9281 20.3377 12.0308 20.7738 12.3167 21.0651L16.6478 25.4814L15.6256 31.7183C15.558 32.1296 15.7198 32.5455 16.0429 32.7906C16.3656 33.036 16.7936 33.0682 17.147 32.8741L22.5002 29.9294L27.8526 32.8741C28.2024 33.066 28.6307 33.0386 28.9571 32.7906C29.2798 32.5455 29.4416 32.1296 29.374 31.7179L28.3518 25.4814L32.6833 21.0651C32.9692 20.7734 33.0719 20.3377 32.9487 19.9406C32.825 19.5439 32.497 19.2543 32.1018 19.1944ZM26.4934 24.3132C26.2465 24.5651 26.1335 24.9283 26.192 25.2839L26.9484 29.8985L22.9884 27.7197C22.6829 27.5518 22.318 27.5518 22.0125 27.7197L18.0512 29.8985L18.8076 25.2839C18.8657 24.9283 18.7531 24.5655 18.5062 24.3132L15.3013 21.0459L19.7302 20.3729C20.0718 20.321 20.367 20.0965 20.5198 19.7727L22.5002 15.5749L24.4798 19.7727C24.6326 20.0965 24.9278 20.321 25.2694 20.3729L29.6983 21.0459L26.4934 24.3132Z" fill="#009E1E"/>
</svg>
