<svg width="45" height="45" viewBox="0 0 45 45" fill="none" xmlns="http://www.w3.org/2000/svg">
<path d="M43.0726 17.9863C42.9892 17.5647 43.132 16.9574 43.2697 16.37C43.4777 15.4845 43.7129 14.4814 43.3325 13.5623C42.9442 12.6267 42.0584 12.0795 41.2767 11.5968C40.7716 11.2847 40.2491 10.962 40.0204 10.62C39.7866 10.2705 39.6861 9.65973 39.5892 9.06921C39.4413 8.16765 39.2734 7.14558 38.5637 6.43593C37.8541 5.72628 36.8317 5.55874 35.9301 5.41077C35.3396 5.31395 34.7292 5.2137 34.3807 4.98093C34.038 4.75159 33.7157 4.22905 33.4036 3.72368C32.9205 2.94193 32.3733 2.05547 31.4374 1.66752C30.519 1.28677 29.5158 1.52229 28.6307 1.73C28.0429 1.86802 27.4353 2.0105 27.014 1.92741C26.5948 1.84433 25.9916 1.48521 25.4083 1.13777C24.4693 0.578499 23.498 0 22.5 0C21.5013 0 20.5297 0.578499 19.59 1.13777C19.0067 1.48521 18.4035 1.84433 17.9843 1.92741C17.5634 2.0105 16.956 1.86802 16.3686 1.73C15.4832 1.52229 14.48 1.28677 13.5612 1.66752C12.6257 2.05582 12.0784 2.94193 11.5954 3.72368C11.2836 4.22905 10.9609 4.75159 10.619 4.98058C10.2705 5.2137 9.66007 5.31395 9.06956 5.41077C8.16765 5.55874 7.14558 5.72662 6.43524 6.43627C5.72628 7.14523 5.55874 8.16628 5.41077 9.0675C5.31395 9.65836 5.2137 10.2695 4.97887 10.6197C4.74987 10.9623 4.22768 11.2847 3.72265 11.5968C2.94125 12.0798 2.05547 12.6267 1.66752 13.563C1.28712 14.4814 1.52195 15.4842 1.72932 16.3689C1.86699 16.9564 2.00947 17.564 1.9257 17.9863C1.84296 18.4059 1.48384 19.0091 1.1364 19.5927C0.577812 20.5317 0 21.5023 0 22.5C0 23.4984 0.577812 24.4696 1.13674 25.409C1.48384 25.9926 1.84296 26.5958 1.9257 27.0164C2.00912 27.4373 1.86699 28.045 1.72932 28.6324C1.52195 29.5175 1.28712 30.5204 1.66752 31.4384C2.05582 32.3743 2.94125 32.9212 3.72265 33.4043C4.22768 33.716 4.74987 34.0387 4.9799 34.3824C5.2137 34.7309 5.31429 35.342 5.41111 35.9328C5.55874 36.8337 5.72628 37.8548 6.43524 38.5648C7.14455 39.2737 8.16559 39.4413 9.06647 39.5892C9.65767 39.6861 10.2688 39.7863 10.619 40.0211C10.9613 40.2501 11.284 40.7723 11.5961 41.2774C12.0788 42.0588 12.626 42.9442 13.5619 43.3325C14.4796 43.7129 15.4825 43.4777 16.3676 43.2707C16.955 43.133 17.563 42.9909 17.9846 43.0743C18.4038 43.157 19.0074 43.5162 19.591 43.8633C20.5304 44.4222 21.5016 45 22.5 45C23.4977 45 24.4686 44.4222 25.4073 43.8636C25.9909 43.5162 26.5945 43.157 27.0144 43.0743C27.436 42.9909 28.0436 43.133 28.6317 43.2707C29.5165 43.4781 30.5193 43.7129 31.4377 43.3325C32.3733 42.9445 32.9205 42.0588 33.4032 41.2774C33.7153 40.7723 34.0377 40.2501 34.381 40.0208C34.7305 39.7863 35.3416 39.6861 35.9325 39.5892C36.8334 39.4413 37.8548 39.2737 38.5637 38.5648C39.2734 37.8555 39.4413 36.8334 39.5892 35.9318C39.6861 35.341 39.7866 34.7305 40.0201 34.381C40.2491 34.0387 40.7716 33.716 41.2767 33.4039C42.0584 32.9212 42.9442 32.374 43.3325 31.4381C43.7129 30.5197 43.4777 29.5165 43.2697 28.6314C43.132 28.044 42.9895 27.437 43.0726 27.0161C43.1553 26.5965 43.5148 25.9933 43.8619 25.41C44.4215 24.4703 45 23.4987 45 22.5C45 21.502 44.4215 20.5307 43.8622 19.5917C43.5148 19.0084 43.1557 18.4052 43.0726 17.9863ZM42.3516 24.5108C41.9283 25.2222 41.4902 25.9579 41.3481 26.6745V26.6748C41.1912 27.4686 41.3779 28.2637 41.5585 29.0331C41.713 29.6906 41.8723 30.3703 41.7089 30.7652C41.5383 31.1768 40.9357 31.5486 40.3531 31.9088C39.6881 32.3194 39.0008 32.7437 38.5593 33.4039C38.114 34.07 37.9821 34.8716 37.8548 35.6469C37.7446 36.3181 37.6306 37.0123 37.3209 37.3216C37.0119 37.6306 36.3187 37.7446 35.6482 37.8544C34.8716 37.9818 34.0689 38.1136 33.4029 38.5603C32.743 39.0015 32.3187 39.6888 31.9077 40.3535C31.5479 40.9357 31.1761 41.5379 30.7645 41.7086C30.3693 41.8723 29.6899 41.713 29.0324 41.5592C28.263 41.379 27.4672 41.1926 26.6734 41.3498C25.9562 41.4912 25.2201 41.9293 24.5084 42.353C23.8081 42.7698 23.0143 43.2422 22.5 43.2422C21.985 43.2422 21.1909 42.7694 20.4898 42.3526C19.7781 41.929 19.0421 41.4912 18.3259 41.3498C17.5359 41.1932 16.7473 41.3762 15.9666 41.5592C15.3094 41.713 14.6297 41.8723 14.2348 41.7089C13.8232 41.5379 13.4514 40.9357 13.0912 40.3535C12.6806 39.6888 12.2563 39.0015 11.5971 38.5606C10.9304 38.1136 10.1277 37.9818 9.35108 37.8544C8.68092 37.7446 7.9874 37.6309 7.67876 37.3219C7.36942 37.0126 7.25578 36.3191 7.14558 35.6482C7.0182 34.872 6.88671 34.0689 6.44005 33.4036C5.99854 32.7441 5.31155 32.3194 4.64687 31.9088C4.06425 31.549 3.46207 31.1768 3.29144 30.7655C3.12767 30.3703 3.28697 29.6906 3.44078 29.0334C3.62103 28.2637 3.80745 27.4682 3.65021 26.6751C3.50876 25.9579 3.07102 25.2219 2.64736 24.5102C2.23057 23.8094 1.75781 23.015 1.75781 22.5C1.75781 21.9857 2.23022 21.1919 2.64702 20.4916C3.07068 19.7799 3.50876 19.0438 3.64986 18.3273C3.80745 17.5331 3.62103 16.7373 3.44078 15.9679C3.28697 15.3105 3.12767 14.631 3.29109 14.2359C3.46207 13.8239 4.06425 13.4521 4.64653 13.0923C5.3112 12.6813 5.99854 12.257 6.43936 11.5978C6.88637 10.9311 7.0182 10.1284 7.14558 9.35177C7.25544 8.68126 7.36908 7.98809 7.67807 7.67944C7.98809 7.36977 8.68263 7.25578 9.35452 7.14558C10.1297 7.0182 10.9311 6.88671 11.5968 6.44142C12.2563 5.99957 12.6806 5.31223 13.0912 4.64756C13.451 4.0646 13.8232 3.46207 14.2345 3.29144C14.6297 3.12767 15.3094 3.28697 15.9669 3.44147C16.736 3.62206 17.5314 3.80882 18.3255 3.65192C19.0421 3.51013 19.7778 3.07205 20.4892 2.64839C21.1902 2.23091 21.985 1.75781 22.5 1.75781C23.0143 1.75781 23.8084 2.23091 24.5088 2.64805C25.2201 3.07171 25.9559 3.50979 26.6731 3.65192C27.4672 3.80882 28.2627 3.62206 29.0321 3.44147C29.6895 3.28732 30.3693 3.12767 30.7641 3.29109C31.1758 3.46207 31.5479 4.0646 31.9077 4.64756C32.3183 5.31223 32.743 5.99957 33.4032 6.44211C34.0689 6.88671 34.8703 7.0182 35.6455 7.14523C36.317 7.25544 37.0112 7.36942 37.3209 7.6791C37.6302 7.98843 37.7446 8.68263 37.8548 9.35383C37.9821 10.1294 38.1136 10.9311 38.5593 11.5971C39.0008 12.257 39.6881 12.6813 40.3531 13.0923C40.9357 13.4521 41.5379 13.8239 41.7086 14.2352C41.8723 14.6307 41.7127 15.3105 41.5585 15.9679C41.3779 16.7373 41.1912 17.5328 41.3481 18.3269C41.4902 19.0441 41.9283 19.7799 42.352 20.4912C42.7691 21.1916 43.2422 21.9857 43.2422 22.5C43.2422 23.015 42.7691 23.8098 42.3516 24.5108Z" fill="#009E1E"/>
<path d="M22.4966 5.27344C13.3096 5.27344 5.27002 13.2828 5.27002 22.5C5.27002 31.687 13.2794 39.7266 22.4966 39.7266C31.6836 39.7266 39.7231 31.7172 39.7231 22.5C39.7231 13.313 31.7138 5.27344 22.4966 5.27344ZM22.4966 37.9688C14.2562 37.9688 7.02783 30.7404 7.02783 22.5C7.02783 14.2596 14.2562 7.03125 22.4966 7.03125C30.737 7.03125 37.9653 14.2596 37.9653 22.5C37.9653 30.7404 30.737 37.9688 22.4966 37.9688Z" fill="#009E1E"/>
<path fill-rule="evenodd" clip-rule="evenodd" d="M19.9999 26.2L15.7999 22L14.3999 23.4L19.9999 29L31.9999 17L30.5999 15.6L19.9999 26.2Z" fill="#009E1E"/>
</svg>
