<svg width="45" height="45" viewBox="0 0 45 45" fill="none" xmlns="http://www.w3.org/2000/svg">
<g clip-path="url(#clip0)">
<path d="M36.8262 26.8066C36.3411 26.8066 35.9473 27.2004 35.9473 27.6855C35.9473 28.1707 36.3411 28.5645 36.8262 28.5645C37.3113 28.5645 37.7051 28.1707 37.7051 27.6855C37.7051 27.2004 37.3113 26.8066 36.8262 26.8066Z" fill="#009E1E"/>
<path d="M33.3105 26.8066C32.8254 26.8066 32.4316 27.2004 32.4316 27.6855C32.4316 28.1707 32.8254 28.5645 33.3105 28.5645C33.7957 28.5645 34.1894 28.1707 34.1894 27.6855C34.1894 27.2004 33.7957 26.8066 33.3105 26.8066Z" fill="#009E1E"/>
<path d="M29.7949 26.8066C29.3098 26.8066 28.916 27.2004 28.916 27.6855C28.916 28.1707 29.3098 28.5645 29.7949 28.5645C30.28 28.5645 30.6738 28.1707 30.6738 27.6855C30.6738 27.2004 30.28 26.8066 29.7949 26.8066Z" fill="#009E1E"/>
<path d="M6.41602 25.0488C5.9309 25.0488 5.53711 25.4426 5.53711 25.9277C5.53711 26.4128 5.9309 26.8066 6.41602 26.8066C6.90113 26.8066 7.29492 26.4128 7.29492 25.9277C7.29492 25.4426 6.90113 25.0488 6.41602 25.0488Z" fill="#009E1E"/>
<path d="M44.121 23.291H41.2206V13.623C41.2206 12.1691 40.0378 10.9863 38.5839 10.9863H37.705V6.5918C37.705 6.10634 37.3115 5.71289 36.8261 5.71289C36.3406 5.71289 35.9472 6.10634 35.9472 6.5918V10.9863H35.0683C33.6143 10.9863 32.4315 12.1691 32.4315 13.623V23.291H30.6737V13.623C30.6737 13.1376 30.2803 12.7441 29.7948 12.7441C28.3924 12.7441 22.2654 12.7441 19.8632 12.7441V8.34961C19.8632 7.86415 19.4698 7.4707 18.9843 7.4707H6.41596C5.9305 7.4707 5.53705 7.86415 5.53705 8.34961V12.7441H4.65815C4.17269 12.7441 3.77924 13.1376 3.77924 13.623V19.7754H0.878856C0.393398 19.7754 -4.93812e-05 20.1688 -4.93812e-05 20.6543C-4.93812e-05 24.2719 1.5013 27.873 4.15827 30.7243C3.80121 30.9224 3.4603 31.1682 3.14307 31.4576C2.50277 32.0416 1.53906 32.3115 0.867526 32.3201C0.382411 32.3262 -0.00622918 32.7248 -4.93812e-05 33.21C0.00613042 33.6954 0.404041 34.0871 0.889842 34.0779C2.11516 34.0621 3.46442 33.5437 4.32787 32.7564C5.62563 31.5709 7.19667 31.6447 8.41649 32.7568C9.35102 33.6089 10.5447 34.0786 11.7773 34.0786C13.0098 34.0786 14.2035 33.6089 15.1381 32.7568C16.3991 31.6066 17.966 31.607 19.227 32.7568C20.1615 33.6089 21.3553 34.0786 22.5878 34.0786C23.8203 34.0786 25.0137 33.6089 25.9486 32.7568C27.2096 31.6066 28.7762 31.607 30.0376 32.7568C31.9687 34.5184 34.5639 34.518 36.4951 32.7568C37.7565 31.6066 39.3289 31.6108 40.5844 32.7571C41.4832 33.5759 42.8751 34.095 44.1323 34.0779C44.6178 34.0714 45.0061 33.6728 44.9995 33.1873C44.9934 32.7022 44.5941 32.3139 44.1093 32.3201C43.493 32.331 42.6296 32.1151 41.9766 31.6276C43.9328 29.4283 44.9999 26.8125 44.9999 24.1699C44.9999 23.6845 44.6064 23.291 44.121 23.291ZM34.1894 16.2598H39.4628V23.291H34.1894V16.2598ZM35.0683 12.7441H38.5839C39.0686 12.7441 39.4628 13.1386 39.4628 13.623V14.502H34.1894V13.623C34.1894 13.1386 34.5838 12.7441 35.0683 12.7441ZM28.9159 23.291H21.621V14.502H28.9159V23.291ZM7.29486 9.22852H18.1054V12.7441H7.29486V9.22852ZM5.53705 14.502H19.8632V23.291H17.7696L16.2549 20.2612C16.1059 19.9635 15.8017 19.7754 15.4687 19.7754H5.53705V14.502ZM40.5281 30.6083C38.8091 29.7719 36.8292 30.0737 35.311 31.458C34.05 32.6078 32.483 32.6078 31.222 31.458C29.2908 29.6967 26.6957 29.6967 24.7641 31.458C23.5031 32.6078 21.6725 32.6078 20.4115 31.458C18.4803 29.6967 15.8851 29.6967 13.9536 31.458C12.6926 32.6078 10.862 32.6081 9.60096 31.458C8.56309 30.5118 7.32061 30.0569 6.05856 30.1489C3.55402 27.7552 2.03276 24.6732 1.79175 21.5332H14.9255L16.4406 24.563C16.5893 24.861 16.8938 25.0402 17.2265 25.0402H43.1923C42.9722 26.9907 42.0332 28.9631 40.5281 30.6083Z" fill="#009E1E"/>
<path d="M36.8262 18.0176C36.3407 18.0176 35.9473 18.411 35.9473 18.8965V20.6543C35.9473 21.1398 36.3407 21.5332 36.8262 21.5332C37.3116 21.5332 37.7051 21.1398 37.7051 20.6543V18.8965C37.7051 18.411 37.3116 18.0176 36.8262 18.0176Z" fill="#009E1E"/>
<path d="M13.7109 25.0488H9.93164C9.44618 25.0488 9.05273 25.4423 9.05273 25.9277C9.05273 26.4132 9.44618 26.8066 9.93164 26.8066H13.7109C14.1964 26.8066 14.5898 26.4132 14.5898 25.9277C14.5898 25.4423 14.1964 25.0488 13.7109 25.0488Z" fill="#009E1E"/>
<path d="M44.1326 39.3514C44.6178 39.3452 45.0061 38.9462 44.9999 38.4608C44.9937 37.9794 44.6013 37.5935 44.1213 37.5935C44.1175 37.5935 44.1134 37.5935 44.1096 37.5935C43.4254 37.6052 42.4363 37.3395 41.7689 36.7315C39.8377 34.9702 37.2425 34.9702 35.311 36.7315C34.05 37.8812 32.483 37.8812 31.222 36.7315C29.2908 34.9702 26.6956 34.9702 24.7641 36.7315C23.5031 37.8812 21.6725 37.8812 20.4115 36.7315C18.4803 34.9702 15.8851 34.9702 13.9536 36.7315C12.6926 37.8812 10.862 37.8812 9.60095 36.7315C7.66976 34.9702 5.07459 34.9702 3.1434 36.7315C2.50276 37.3151 1.53906 37.585 0.867862 37.5935C0.382404 37.5997 -0.0058936 37.9983 -5.71278e-05 38.4838C0.00612267 38.9689 0.404033 39.3562 0.890177 39.3514C2.11515 39.3359 3.46441 38.8171 4.32752 38.0302C5.58854 36.8805 7.15546 36.8805 8.41649 38.0302C9.35101 38.8827 10.5447 39.352 11.7773 39.352C13.0098 39.352 14.2035 38.8827 15.138 38.0302C16.3991 36.8805 17.966 36.8805 19.227 38.0302C20.1615 38.8827 21.3553 39.352 22.5878 39.352C23.8203 39.352 25.0137 38.8827 25.9486 38.0302C27.2096 36.8805 28.7762 36.8805 30.0375 38.0302C31.9687 39.7918 34.5639 39.7915 36.4954 38.0302C37.7565 36.8805 39.3234 36.8801 40.5844 38.0306C41.4836 38.8494 42.8754 39.3713 44.1326 39.3514Z" fill="#009E1E"/>
</g>
<defs>
<clipPath id="clip0">
<rect width="45" height="45" fill="white"/>
</clipPath>
</defs>
</svg>
