<svg width="45" height="45" viewBox="0 0 45 45" fill="none" xmlns="http://www.w3.org/2000/svg">
<path d="M36.7899 29.5923C35.6903 29.5923 34.6457 30.023 33.8577 30.8018C33.0696 31.5898 32.6298 32.6161 32.6298 33.7157C32.6298 34.8153 33.0605 35.8415 33.8577 36.6295C34.6549 37.4084 35.6903 37.8391 36.7899 37.8391C39.044 37.8391 40.8766 35.9881 40.8766 33.7157C40.8766 31.4432 39.044 29.5923 36.7899 29.5923ZM36.7899 36.0065C35.5254 36.0065 34.4624 34.9619 34.4624 33.7157C34.4624 32.4695 35.5254 31.4249 36.7899 31.4249C38.036 31.4249 39.044 32.4512 39.044 33.7157C39.044 34.9802 38.036 36.0065 36.7899 36.0065ZM37.8528 15.8568C37.6878 15.701 37.4679 15.6186 37.2388 15.6186H32.5382C32.0342 15.6186 31.6219 16.0309 31.6219 16.5349V24.0486C31.6219 24.5526 32.0342 24.9649 32.5382 24.9649H39.9969C40.5009 24.9649 40.9133 24.5526 40.9133 24.0486V19.0181C40.9133 18.7615 40.8033 18.5141 40.6109 18.34L37.8528 15.8568ZM39.0806 23.1323H33.4545V17.442H36.8815L39.0806 19.4212V23.1323ZM14.4136 29.5923C13.314 29.5923 12.2694 30.023 11.4814 30.8018C10.6933 31.5898 10.2535 32.6161 10.2535 33.7157C10.2535 34.8153 10.6842 35.8415 11.4814 36.6295C12.2786 37.4084 13.314 37.8391 14.4136 37.8391C16.6677 37.8391 18.5003 35.9881 18.5003 33.7157C18.5003 31.4432 16.6677 29.5923 14.4136 29.5923ZM14.4136 36.0065C13.1491 36.0065 12.0861 34.9619 12.0861 33.7157C12.0861 32.4695 13.1491 31.4249 14.4136 31.4249C15.6597 31.4249 16.6677 32.4512 16.6677 33.7157C16.6677 34.9802 15.6597 36.0065 14.4136 36.0065ZM8.30177 30.7193H6.45999V28.282C6.45999 27.778 6.04765 27.3657 5.54368 27.3657C5.03971 27.3657 4.62737 27.778 4.62737 28.282V31.6357C4.62737 32.1396 5.03971 32.552 5.54368 32.552H8.30177C8.80574 32.552 9.21808 32.1396 9.21808 31.6357C9.21808 31.1317 8.80574 30.7193 8.30177 30.7193ZM12.9475 25.7255C12.9475 25.2215 12.5351 24.8091 12.0312 24.8091H0.91631C0.41234 24.8091 0 25.2215 0 25.7255C0 26.2294 0.41234 26.6418 0.91631 26.6418H12.0312C12.5351 26.6418 12.9475 26.2386 12.9475 25.7255ZM2.77642 22.4176L13.8913 22.4817C14.3952 22.4817 14.8076 22.0785 14.8167 21.5746C14.8259 21.0614 14.4136 20.6491 13.9096 20.6491L2.79475 20.585C2.78558 20.585 2.78558 20.585 2.78558 20.585C2.28161 20.585 1.86927 20.9881 1.86927 21.4921C1.86011 22.0052 2.27245 22.4176 2.77642 22.4176ZM4.64569 18.2575H15.7605C16.2645 18.2575 16.6768 17.8452 16.6768 17.3412C16.6768 16.8372 16.2645 16.4249 15.7605 16.4249H4.64569C4.14172 16.4249 3.72938 16.8372 3.72938 17.3412C3.72938 17.8452 4.14172 18.2575 4.64569 18.2575ZM44.661 17.0205L38.1002 11.5868C37.9352 11.4493 37.7337 11.376 37.5137 11.376H29.7984V8.07732C29.7984 7.57335 29.3861 7.16101 28.8821 7.16101H5.54368C5.03971 7.16101 4.62737 7.57335 4.62737 8.07732V14.7847C4.62737 15.2887 5.03971 15.701 5.54368 15.701C6.04765 15.701 6.45999 15.2887 6.45999 14.7847V8.99363H27.975V30.7193H20.4612C19.9572 30.7193 19.5449 31.1317 19.5449 31.6357C19.5449 32.1396 19.9572 32.552 20.4612 32.552H31.6494C32.1533 32.552 32.5657 32.1396 32.5657 31.6357C32.5657 31.1317 32.1533 30.7193 31.6494 30.7193H29.8076V13.2087H37.193L43.1674 18.1567L43.1032 30.701H42.1503C41.6463 30.701 41.234 31.1134 41.234 31.6173C41.234 32.1213 41.6463 32.5336 42.1503 32.5336H44.0104C44.5144 32.5336 44.9267 32.1305 44.9267 31.6265L45 17.7352C44.9908 17.4603 44.8717 17.1946 44.661 17.0205Z" fill="#009E1E"/>
</svg>
