<svg width="24" height="24" viewBox="0 0 24 24" fill="none" xmlns="http://www.w3.org/2000/svg">
<path fill-rule="evenodd" clip-rule="evenodd" d="M15.5019 14.0001H14.7079L14.4319 13.7261C15.4069 12.5891 15.9999 11.1151 15.9999 9.5001C15.9999 5.9101 13.0899 3.0001 9.49989 3.0001C5.90988 3.0001 2.99988 5.9101 2.99988 9.5001C2.99988 13.0901 5.90988 16.0001 9.49989 16.0001C11.1149 16.0001 12.5879 15.4081 13.7249 14.4341L14.0009 14.7081V15.5001L18.9989 20.4911L20.4899 19.0001L15.5019 14.0001ZM9.49992 14.0001C7.01393 14.0001 4.99994 11.9861 4.99994 9.50013C4.99994 7.01513 7.01393 5.00013 9.49992 5.00013C11.9849 5.00013 13.9999 7.01513 13.9999 9.50013C13.9999 11.9861 11.9849 14.0001 9.49992 14.0001Z" fill="white"/>
</svg>
