<svg width="19" height="19" viewBox="0 0 19 19" fill="none" xmlns="http://www.w3.org/2000/svg">
<g opacity="0.54">
<g clip-path="url(#clip0)">
<path d="M14.445 12.5688C13.8242 11.956 13.0493 11.956 12.4325 12.5688C11.962 13.0354 11.4915 13.5019 11.0289 13.9764C10.9024 14.1068 10.7957 14.1345 10.6415 14.0475C10.337 13.8815 10.0128 13.747 9.72026 13.5652C8.35623 12.7072 7.2136 11.6041 6.20145 10.3627C5.69933 9.74587 5.25256 9.0856 4.94021 8.3423C4.87695 8.19206 4.88881 8.09322 5.01138 7.97065C5.48187 7.51597 5.9405 7.04943 6.40309 6.5829C7.04754 5.93449 7.04754 5.17537 6.39913 4.52301C6.03144 4.15136 5.66374 3.78761 5.29605 3.41596C4.91649 3.03641 4.54089 2.6529 4.15737 2.27729C3.53664 1.67237 2.76171 1.67237 2.14493 2.28125C1.67049 2.74779 1.21581 3.22619 0.733453 3.68482C0.286683 4.10787 0.0613208 4.6258 0.0138761 5.23072C-0.0612445 6.2152 0.179932 7.14432 0.519952 8.04973C1.21581 9.92379 2.2754 11.5883 3.56036 13.1144C5.29605 15.1783 7.3678 16.8112 9.79143 17.9894C10.8827 18.5192 12.0134 18.9264 13.243 18.9936C14.0891 19.0411 14.8245 18.8276 15.4136 18.1673C15.8169 17.7166 16.2716 17.3054 16.6986 16.8744C17.3312 16.2339 17.3351 15.459 16.7065 14.8264C15.9553 14.0712 15.2001 13.32 14.445 12.5688Z" fill="#424242"/>
<path d="M13.6899 9.41772L15.1488 9.16864C14.9195 7.82833 14.2869 6.61454 13.3262 5.64983C12.3101 4.63372 11.0251 3.99322 9.60968 3.79553L9.40408 5.26236C10.4993 5.41656 11.4956 5.91077 12.2824 6.69756C13.0257 7.44086 13.512 8.38185 13.6899 9.41772Z" fill="#424242"/>
<path d="M15.9711 3.07599C14.2868 1.39171 12.1557 0.328159 9.80326 0L9.59767 1.46683C11.6299 1.7515 13.4723 2.67272 14.9273 4.12373C16.3071 5.50358 17.2125 7.24717 17.5407 9.16472L18.9996 8.91564C18.6161 6.69365 17.5684 4.67725 15.9711 3.07599Z" fill="#424242"/>
</g>
</g>
<defs>
<clipPath id="clip0">
<rect width="19" height="19" fill="white"/>
</clipPath>
</defs>
</svg>
