<svg width="20" height="20" viewBox="0 0 20 20" fill="none" xmlns="http://www.w3.org/2000/svg">
<path d="M19.8982 0.819189C19.8092 0.741102 19.6825 0.722985 19.5751 0.772791L0.172992 9.78756C0.068538 9.83611 0.00127346 9.94032 1.78559e-05 10.0555C-0.00123775 10.1706 0.0638146 10.2763 0.167253 10.3271L5.65801 13.0217C5.7587 13.0711 5.87876 13.06 5.96869 12.9928L11.3072 9.00269L7.11625 13.3136C7.05646 13.3751 7.02597 13.4594 7.03254 13.5449L7.44982 18.9792C7.45909 19.0996 7.53981 19.2026 7.65455 19.2403C7.68522 19.2503 7.71673 19.2552 7.74788 19.2552C7.83332 19.2552 7.91643 19.2186 7.97425 19.1516L10.8886 15.7745L14.4913 17.4959C14.5695 17.5333 14.66 17.5348 14.7394 17.5003C14.8189 17.4656 14.8794 17.3983 14.9054 17.3157L19.9863 1.13351C20.0218 1.0205 19.9872 0.897275 19.8982 0.819189Z" fill="white"/>
</svg>
