<svg width="16" height="16" viewBox="0 0 16 16" fill="none" xmlns="http://www.w3.org/2000/svg">
<path d="M7.354 7.9235C7.126 7.432 7 6.871 7 6.25C7 5.629 7.126 5.0055 7.354 4.4205C7.5815 3.835 7.911 3.2875 8.3185 2.818C8.7255 2.349 9.2105 1.9565 9.7485 1.6825C10.287 1.407 10.879 1.25 11.5 1.25C12.121 1.25 12.713 1.376 13.2515 1.6035C13.79 1.8315 14.2745 2.161 14.6815 2.568C15.088 2.975 15.4185 3.46 15.646 3.9985C15.8745 4.5365 16 5.129 16 5.75C16 6.371 15.874 6.9635 15.646 7.5015C15.4185 8.04 15.089 8.525 14.6815 8.932C14.275 9.339 8.5385 14.522 8 14.75C7.4615 14.522 1.725 9.339 1.318 8.932C0.911 8.525 0.5815 8.04 0.3535 7.5015C0.126 6.9635 0 6.371 0 5.75C0 5.129 0.126 4.5365 0.3535 3.9985C0.5815 3.46 0.9105 2.975 1.318 2.568C1.725 2.161 2.21 1.8315 2.7485 1.6035C3.2865 1.376 3.8785 1.25 4.5 1.25C5.1215 1.25 5.7135 1.407 6.2515 1.6815C6.79 1.9565 7.2745 2.3485 7.682 2.8175C8.089 3.287 8.4185 3.8345 8.6465 4.42C8.874 5.0055 9 5.629 9 6.25C9 6.871 8.874 7.432 8.6465 7.9235C8.4185 8.415 8.09 8.8375 7.682 9.1825" fill="#393939"/>
</svg>
