<svg width="32" height="32" viewBox="0 0 32 32" fill="none" xmlns="http://www.w3.org/2000/svg">
<path d="M15.5969 15.0673H0.899438C0.39975 15.0673 0 15.467 0 15.9667C0 16.4664 0.39975 16.8661 0.899438 16.8661H15.5969C16.0167 18.9515 17.8622 20.5305 20.0741 20.5305C22.2861 20.5305 24.1316 18.9515 24.5513 16.8661H31.0939C31.5936 16.8661 31.9933 16.4664 31.9933 15.9667C31.9933 15.467 31.5936 15.0673 31.0939 15.0673H24.5513C24.1316 12.9819 22.2861 11.4029 20.0741 11.4029C17.8688 11.4029 16.0167 12.9752 15.5969 15.0673ZM22.8391 15.9667C22.8391 17.4924 21.5998 18.7316 20.0741 18.7316C18.5484 18.7316 17.3092 17.4924 17.3092 15.9667C17.3092 14.441 18.5484 13.2018 20.0741 13.2018C21.5998 13.2018 22.8391 14.441 22.8391 15.9667Z" fill="#393939"/>
<path d="M8.05497 26.0804H0.899438C0.39975 26.0804 0 26.4802 0 26.9799C0 27.4796 0.39975 27.8793 0.899438 27.8793H8.05497C8.4747 29.9647 10.3202 31.5437 12.5322 31.5437C14.7441 31.5437 16.5896 29.9647 17.0094 27.8793H31.0939C31.5936 27.8793 31.9933 27.4796 31.9933 26.9799C31.9933 26.4802 31.5936 26.0804 31.0939 26.0804H17.0027C16.583 23.9951 14.7375 22.4161 12.5255 22.4161C10.3136 22.4161 8.4747 23.9951 8.05497 26.0804ZM15.2971 26.9799C15.2971 28.5056 14.0579 29.7448 12.5322 29.7448C11.0065 29.7448 9.76723 28.5056 9.76723 26.9799C9.76723 25.4542 11.0065 24.2149 12.5322 24.2149C14.0579 24.2149 15.2971 25.4608 15.2971 26.9799Z" fill="#393939"/>
<path d="M8.05497 4.12073L0.899438 4.12073C0.39975 4.12073 0 4.52048 0 5.02017C0 5.51986 0.39975 5.91961 0.899438 5.91961H8.05497C8.4747 8.00497 10.3202 9.58398 12.5322 9.58398C14.7441 9.58398 16.5896 8.00497 17.0094 5.91961L31.1006 5.91961C31.6003 5.91961 32 5.51986 32 5.02017C32 4.52048 31.6003 4.12073 31.1006 4.12073L17.0027 4.12073C16.583 2.03537 14.7375 0.456354 12.5255 0.456354C10.3136 0.456354 8.4747 2.02871 8.05497 4.12073ZM15.2971 5.02017C15.2971 6.54588 14.0579 7.78511 12.5322 7.78511C11.0065 7.78511 9.76723 6.54588 9.76723 5.02017C9.76723 3.49446 11.0065 2.25523 12.5322 2.25523C14.0579 2.25523 15.2971 3.49446 15.2971 5.02017Z" fill="#393939"/>
</svg>
