<svg width="32" height="32" viewBox="0 0 32 32" fill="none" xmlns="http://www.w3.org/2000/svg">
<path d="M26.4788 6.55917H25.6564V4.7287C25.6564 2.12228 23.5341 0 20.9277 0H10.9994C8.39296 0 6.27068 2.12228 6.27068 4.7287V6.55917H5.52125C2.91482 6.55917 0.792542 8.68145 0.792542 11.2879V18.9148C0.792542 21.5212 2.91482 23.6435 5.52125 23.6435H6.26405V29.639C6.26405 30.9389 7.32519 32 8.62508 32H23.2887C24.5886 32 25.6498 30.9389 25.6498 29.639V23.6435H26.4788C29.0852 23.6435 31.2075 21.5212 31.2075 18.9148V11.2879C31.2075 8.68145 29.0852 6.55917 26.4788 6.55917ZM8.05472 4.7287C8.05472 3.11047 9.37451 1.79067 10.9928 1.79067H20.9144C22.5327 1.79067 23.8524 3.11047 23.8524 4.7287V6.55917H8.05472V4.7287ZM23.8591 29.6522C23.8591 29.9639 23.6004 30.2226 23.2887 30.2226H8.62508C8.31337 30.2226 8.05472 29.9639 8.05472 29.6522V19.7637H23.8591V29.6522ZM29.4168 18.9215C29.4168 20.5397 28.097 21.8595 26.4788 21.8595H25.6564V19.7637H26.8369C27.3343 19.7637 27.7322 19.3658 27.7322 18.8684C27.7322 18.371 27.3343 17.9731 26.8369 17.9731H4.95089C4.45348 17.9731 4.05555 18.371 4.05555 18.8684C4.05555 19.3658 4.45348 19.7637 4.95089 19.7637H6.27068V21.8595H5.52125C3.90301 21.8595 2.58322 20.5397 2.58322 18.9215V11.2945C2.58322 9.67627 3.90301 8.35648 5.52125 8.35648H26.4788C28.097 8.35648 29.4168 9.67627 29.4168 11.2945V18.9215Z" fill="white"/>
<path d="M10.2234 24.1675H21.624C22.1214 24.1675 22.5194 23.7695 22.5194 23.2721C22.5194 22.7747 22.1214 22.3768 21.624 22.3768H10.2234C9.72599 22.3768 9.32806 22.7747 9.32806 23.2721C9.32806 23.7695 9.73262 24.1675 10.2234 24.1675Z" fill="white"/>
<path d="M21.697 26.0377H10.2897C9.79234 26.0377 9.39441 26.4356 9.39441 26.9331C9.39441 27.4305 9.79234 27.8284 10.2897 27.8284H21.6904C22.1878 27.8284 22.5857 27.4305 22.5857 26.9331C22.5857 26.4356 22.1878 26.0377 21.697 26.0377Z" fill="white"/>
<path d="M26.4589 10.0742H24.6417C24.1443 10.0742 23.7463 10.4721 23.7463 10.9695C23.7463 11.4669 24.1443 11.8649 24.6417 11.8649H26.4589C26.9563 11.8649 27.3542 11.4669 27.3542 10.9695C27.3542 10.4721 26.9563 10.0742 26.4589 10.0742Z" fill="white"/>
</svg>
