<svg width="16" height="14" viewBox="0 0 16 14" fill="none" xmlns="http://www.w3.org/2000/svg">
<path d="M7.354 6.9235C7.126 6.432 7 5.871 7 5.25C7 4.629 7.126 4.0055 7.354 3.4205C7.5815 2.835 7.911 2.2875 8.3185 1.818C8.7255 1.349 9.2105 0.9565 9.7485 0.6825C10.287 0.407 10.879 0.25 11.5 0.25C12.121 0.25 12.713 0.376 13.2515 0.6035C13.79 0.8315 14.2745 1.161 14.6815 1.568C15.088 1.975 15.4185 2.46 15.646 2.9985C15.8745 3.5365 16 4.129 16 4.75C16 5.371 15.874 5.9635 15.646 6.5015C15.4185 7.04 15.089 7.525 14.6815 7.932C14.275 8.339 8.5385 13.522 8 13.75C7.4615 13.522 1.725 8.339 1.318 7.932C0.911 7.525 0.5815 7.04 0.3535 6.5015C0.126 5.9635 0 5.371 0 4.75C0 4.129 0.126 3.5365 0.3535 2.9985C0.5815 2.46 0.9105 1.975 1.318 1.568C1.725 1.161 2.21 0.8315 2.7485 0.6035C3.2865 0.376 3.8785 0.25 4.5 0.25C5.1215 0.25 5.7135 0.407 6.2515 0.6815C6.79 0.9565 7.2745 1.3485 7.682 1.8175C8.089 2.287 8.4185 2.8345 8.6465 3.42C8.874 4.0055 9 4.629 9 5.25C9 5.871 8.874 6.432 8.6465 6.9235C8.4185 7.415 8.09 7.8375 7.682 8.1825" fill="#3069B3"/>
</svg>
